<svg xmlns="http://www.w3.org/2000/svg" viewBox="0 0 1080 1920" fill="none" role="img" aria-label="Velora">
  <defs>
    <linearGradient id="bg" x1="0" y1="0" x2="1080" y2="1920" gradientUnits="userSpaceOnUse">
      <stop stop-color="#12182A"/><stop offset="0.5" stop-color="#0B0E14"/><stop offset="1" stop-color="#0A1628"/>
    </linearGradient>
    <radialGradient id="glow1" cx="0.25" cy="0.2" r="0.6"><stop stop-color="#7C3AED" stop-opacity="0.32"/><stop offset="1" stop-opacity="0"/></radialGradient>
    <radialGradient id="glow2" cx="0.8" cy="0.85" r="0.55"><stop stop-color="#06B6D4" stop-opacity="0.2"/><stop offset="1" stop-opacity="0"/></radialGradient>
    <linearGradient id="velora-grad" x1="340" y1="260" x2="684" y2="760" gradientUnits="userSpaceOnUse">
      <stop stop-color="#9333EA"/><stop offset="0.42" stop-color="#2563EB"/><stop offset="1" stop-color="#06B6D4"/>
    </linearGradient>
    <linearGradient id="velora-grad-deep" x1="340" y1="260" x2="684" y2="760" gradientUnits="userSpaceOnUse">
      <stop stop-color="#7E22CE"/><stop offset="0.42" stop-color="#1D4ED8"/><stop offset="1" stop-color="#0891B2"/>
    </linearGradient>
  </defs>
  <rect width="1080" height="1920" fill="url(#bg)"/>
  <rect width="1080" height="1920" fill="url(#glow1)"/>
  <rect width="1080" height="1920" fill="url(#glow2)"/>
  <g transform="translate(390 760) scale(3)">
    <path d="M24 20C24 20 34 58 50 84C42 72 28 36 24 20Z" fill="url(#velora-grad-deep)" opacity="0.88"/>
    <path d="M76 20C76 20 66 58 50 84C58 72 72 36 76 20Z" fill="url(#velora-grad)"/>
    <path d="M24 20L50 84L36 76L20 26Z" fill="url(#velora-grad)"/>
    <path d="M72 14.5L74.2 20.8L80.8 20.8L75.3 24.8L77.5 31.2L72 27.2L66.5 31.2L68.7 24.8L63.2 20.8L69.8 20.8L72 14.5Z" fill="#FBBF24"/>
  </g>
  <text x="540" y="1080" text-anchor="middle" font-family="Inter,Segoe UI,sans-serif" font-size="56" font-weight="650" fill="#F8FAFC">Velora</text>
  <text x="540" y="1140" text-anchor="middle" font-family="Inter,Segoe UI,sans-serif" font-size="18" font-weight="600" letter-spacing="0.16em">
    <tspan fill="#A855F7">ESTUDE.</tspan><tspan fill="#3B82F6"> EVOLUA.</tspan><tspan fill="#06B6D4"> CONQUISTE.</tspan>
  </text>
</svg>
