<svg xmlns="http://www.w3.org/2000/svg" viewBox="0 0 1920 1080" fill="none" role="img" aria-label="Velora">
  <defs>
    <linearGradient id="bg" x1="0" y1="0" x2="1920" y2="1080" gradientUnits="userSpaceOnUse">
      <stop stop-color="#12182A"/><stop offset="0.5" stop-color="#0B0E14"/><stop offset="1" stop-color="#0A1628"/>
    </linearGradient>
    <radialGradient id="glow1" cx="0.2" cy="0.3" r="0.55"><stop stop-color="#7C3AED" stop-opacity="0.28"/><stop offset="1" stop-opacity="0"/></radialGradient>
    <linearGradient id="velora-grad" x1="340" y1="260" x2="684" y2="760" gradientUnits="userSpaceOnUse">
      <stop stop-color="#9333EA"/><stop offset="0.42" stop-color="#2563EB"/><stop offset="1" stop-color="#06B6D4"/>
    </linearGradient>
    <linearGradient id="velora-grad-deep" x1="340" y1="260" x2="684" y2="760" gradientUnits="userSpaceOnUse">
      <stop stop-color="#7E22CE"/><stop offset="0.42" stop-color="#1D4ED8"/><stop offset="1" stop-color="#0891B2"/>
    </linearGradient>
  </defs>
  <rect width="1920" height="1080" fill="url(#bg)"/>
  <rect width="1920" height="1080" fill="url(#glow1)"/>
  <g transform="translate(810 290) scale(3.5)">
    <path d="M24 20C24 20 34 58 50 84C42 72 28 36 24 20Z" fill="url(#velora-grad-deep)" opacity="0.88"/>
    <path d="M76 20C76 20 66 58 50 84C58 72 72 36 76 20Z" fill="url(#velora-grad)"/>
    <path d="M24 20L50 84L36 76L20 26Z" fill="url(#velora-grad)"/>
    <path d="M72 14.5L74.2 20.8L80.8 20.8L75.3 24.8L77.5 31.2L72 27.2L66.5 31.2L68.7 24.8L63.2 20.8L69.8 20.8L72 14.5Z" fill="#FBBF24"/>
  </g>
  <text x="960" y="620" text-anchor="middle" font-family="Inter,Segoe UI,sans-serif" font-size="64" font-weight="650" fill="#F8FAFC">Velora</text>
</svg>
