<svg xmlns="http://www.w3.org/2000/svg" viewBox="0 0 360 80" fill="none" role="img" aria-label="Velora">
  <g transform="translate(4 4) scale(0.72)">
    <path d="M24 20C24 20 34 58 50 84C42 72 28 36 24 20Z" fill="#FFFFFF" opacity="0.82"/>
    <path d="M76 20C76 20 66 58 50 84C58 72 72 36 76 20Z" fill="#FFFFFF"/>
    <path d="M24 20L50 84L36 76L20 26Z" fill="#FFFFFF"/>
    <path d="M72 14.5L74.2 20.8L80.8 20.8L75.3 24.8L77.5 31.2L72 27.2L66.5 31.2L68.7 24.8L63.2 20.8L69.8 20.8L72 14.5Z" fill="#FBBF24"/>
  </g>
  <text x="88" y="48" font-family="Inter,Segoe UI,system-ui,sans-serif" font-size="34" font-weight="650" fill="#FFFFFF" letter-spacing="-0.02em">Velora</text>
</svg>
