<svg xmlns="http://www.w3.org/2000/svg" viewBox="0 0 100 100" fill="none" role="img" aria-label="Velora">
  <defs>
    <linearGradient id="velora-grad" x1="14" y1="10" x2="86" y2="86" gradientUnits="userSpaceOnUse">
      <stop stop-color="#6E3AF2"/>
      <stop offset="0.48" stop-color="#9D58FF"/>
      <stop offset="1" stop-color="#00D4C9"/>
    </linearGradient>
    <linearGradient id="velora-grad-deep" x1="14" y1="10" x2="86" y2="86" gradientUnits="userSpaceOnUse">
      <stop stop-color="#7E22CE"/>
      <stop offset="0.42" stop-color="#1D4ED8"/>
      <stop offset="1" stop-color="#0891B2"/>
    </linearGradient>
    <filter id="velora-shadow" x="-25%" y="-25%" width="150%" height="150%">
      <feDropShadow dx="0" dy="3" stdDeviation="3.5" flood-color="#0B0E14" flood-opacity="0.45"/>
    </filter>
  </defs>
  <path filter="url(#velora-shadow)" d="M24 20C24 20 34 58 50 84C42 72 28 36 24 20Z" fill="url(#velora-grad-deep)" opacity="0.88"/>
  <path filter="url(#velora-shadow)" d="M76 20C76 20 66 58 50 84C58 72 72 36 76 20Z" fill="url(#velora-grad)"/>
  <path d="M24 20L50 84L36 76L20 26Z" fill="url(#velora-grad)"/>
  <path d="M50 84L76 20L68 18L50 72L32 18L24 20L50 84Z" fill="url(#velora-grad)" opacity="0.18"/>
  <path d="M72 14.5L74.2 20.8L80.8 20.8L75.3 24.8L77.5 31.2L72 27.2L66.5 31.2L68.7 24.8L63.2 20.8L69.8 20.8L72 14.5Z" fill="#FBBF24"/>
</svg>
